<svg id="Capa_1" data-name="Capa 1" xmlns="http://www.w3.org/2000/svg" viewBox="0 0 47.98 42.61"><defs><style>.cls-1{fill:#e13028;}</style></defs><path class="cls-1" d="M77.8,28.23l-1.44.24a17.43,17.43,0,0,0-5.25,1.87l-.56.33c-.18.11-.27.08-.26-.14a2.47,2.47,0,0,1,.11-.67,12.38,12.38,0,0,1,.46-1.2.88.88,0,0,1,.53-.47c.45-.16.91-.34,1.37-.49a.21.21,0,0,0,.16-.21A21.33,21.33,0,0,1,83.89,11a20.64,20.64,0,0,1,7.27-2.4,21,21,0,0,1,16.89,5,20.74,20.74,0,0,1,6.37,9.63.33.33,0,0,0,.27.26,2.92,2.92,0,0,1,1.13.45.87.87,0,0,1,.42.66c0,.05.06.1.11.13s.29.12.42.2a.23.23,0,0,1,.1.33,23.55,23.55,0,0,0-1.32,3.41c-.3.91-.53,1.84-.78,2.77a2,2,0,0,0,0,.61c0,.21.14.26.3.13a3.28,3.28,0,0,0,.48-.43A34,34,0,0,0,118,28.48l.19-.28c0,.38.06.72.08,1.06a.13.13,0,0,1,0,.1,17.68,17.68,0,0,1-2.07,3.13,2,2,0,0,1-1,.7s-.09.11-.1.17A20.12,20.12,0,0,1,113.3,39,21.11,21.11,0,0,1,98.62,50.51a20.33,20.33,0,0,1-6.32.41A21.35,21.35,0,0,1,74.36,37.69a.77.77,0,0,0-.07-.16h-.05l-.3,1.08-.32-.12a3.14,3.14,0,0,1-.31-.18,1.61,1.61,0,0,1-.73-2.06,9.6,9.6,0,0,1,1.08-2.32A36.66,36.66,0,0,1,77,29.3l.85-1,0-.05m22.2,20,.2,0a.8.8,0,0,0,.56-.42.36.36,0,0,0,0-.42,1.3,1.3,0,0,0-.34-.21s-.08.07-.13.1.07.08.11.09a.2.2,0,0,1,.13.36.9.9,0,0,1-.81.39,1.14,1.14,0,0,1-.75-.38.78.78,0,0,1-.1-.15l-.06.06a.6.6,0,0,0,.34.4,8.37,8.37,0,0,0,.86.23,1.31,1.31,0,0,1-1.3-.44.37.37,0,0,0,.16.39,1.63,1.63,0,0,0,1.25.32,1.07,1.07,0,0,0,1-1.19.53.53,0,0,0-.34-.49c-.49-.19-.85-.05-.87.47a.26.26,0,0,0,.19.29.29.29,0,0,0,.36-.1l0,0c-.15-.07-.24-.16-.17-.33s.22-.12.38,0a.52.52,0,0,1,.13.86.87.87,0,0,1-.74.28m6.55-15.77.07.07a4.5,4.5,0,0,0,.42-.3c.56-.54,1.1-1.08,1.64-1.62a.71.71,0,0,0,.16-.31c.06-.25.09-.51.17-.76A12.08,12.08,0,0,1,111.67,25a5.42,5.42,0,0,1,2-1.51c.1,0,.07-.1,0-.17-.13-.37-.26-.74-.4-1.1A20.58,20.58,0,0,0,95.52,9.16a20.58,20.58,0,0,0-21.7,17.21c-.06.35-.1.7-.15,1.07l.93-.19a31.32,31.32,0,0,1,4.32-.45.44.44,0,0,0,.37-.17,42.12,42.12,0,0,1,5-4.72c.66-.51,1.38-.94,2.08-1.42a.66.66,0,0,1,.58-.07A2.83,2.83,0,0,1,88,21c.29.23.3.32.11.62l0,.05c-.22.41-.45.81-.66,1.23a42,42,0,0,0-3.35,9.21,13.09,13.09,0,0,0-.53,3.81A2.06,2.06,0,0,1,81.81,35a1,1,0,0,1-.16-.57,9,9,0,0,1,.19-1.37,47.39,47.39,0,0,1,1.39-4.78c0-.05,0-.11,0-.16l-.07,0L80.73,28a.35.35,0,0,0-.22.12c-.5.57-1,1.13-1.47,1.71a34.09,34.09,0,0,0-4.25,6.45.36.36,0,0,0,0,.35A20.51,20.51,0,0,0,85.53,48.38a2.11,2.11,0,0,0,1,.22,3.55,3.55,0,0,0,1.65-.45,1.07,1.07,0,0,0,.55-.89c0-.1,0-.23-.15-.24a.36.36,0,0,1-.15-.06.46.46,0,0,1,0-.2.43.43,0,0,1,.09-.1.33.33,0,0,0-.46-.13c-.14,0-.28.09-.38-.13a3,3,0,0,0-.3.37c-.13.21,0,.39.22.39A1.55,1.55,0,0,0,88,47.1a.31.31,0,0,1-.24.35.81.81,0,0,1-.77-.29c-.18-.23-.09-.45,0-.67a1.58,1.58,0,0,1,1.52-.65.54.54,0,0,0,.33,0,1.55,1.55,0,0,1,.43,0c.06,0,.12,0,.17,0a.51.51,0,0,1,.48,0,.23.23,0,0,0,.12,0,.63.63,0,0,1,.55.19c.05,0,.1.09.15.09a.73.73,0,0,1,.52.4l.1.17a.9.9,0,0,0,.07-.11,4.85,4.85,0,0,1,1.13-1.82,3,3,0,0,1,2.07-1,2.46,2.46,0,0,1,1.93.74.34.34,0,0,0,.16.1,1.46,1.46,0,0,1,1,.59c.15.2.25.44.53.51.06,0,.11.08.16.13a1.5,1.5,0,0,1,.43,1.1.49.49,0,0,0,0,.21,1.2,1.2,0,0,0,1.13.62,1.09,1.09,0,0,0,.21-.09l-.12-.08a.65.65,0,0,1,0-1.07.85.85,0,0,1,1.13.3,1.2,1.2,0,0,1,0,.93c0,.13,0,.19.11.22a1.52,1.52,0,0,0,.88-.1l-.18-.05a.29.29,0,0,1-.21-.47.69.69,0,0,1,.16-.21.93.93,0,0,1,1.19.18.69.69,0,0,1,.13.63h.07l.13-.06A20.43,20.43,0,0,0,113.8,35.64c.25-.79.39-1.61.59-2.41a.21.21,0,0,0-.13-.27,3.36,3.36,0,0,1-.49-.35,1.33,1.33,0,0,1-.55-1c0-.27,0-.53,0-.79s0-.45.06-.69c0,0,0,0,0,0l-.07.13a8.61,8.61,0,0,1-1.34,2.1,1.16,1.16,0,0,1-.73.45,2.15,2.15,0,0,1-1.92-.86l-.12-.15-.14.18a6.05,6.05,0,0,1-1.2,1.33.94.94,0,0,1-.8.22,3.36,3.36,0,0,1-.45-.14,3.42,3.42,0,0,1-1.68-1.61.68.68,0,0,1-.06-.4,5.89,5.89,0,0,1,.19-.91,32,32,0,0,1,1.72-4.21,2,2,0,0,0,.1-.21l-.07-.05c-.24.26-.51.5-.73.78A40.12,40.12,0,0,0,102,33c-.2.36-.25.39-.64.27l-.13,0A3.17,3.17,0,0,1,99.93,32a.69.69,0,0,1-.14-.56c.06-.35.12-.7.21-1a40.25,40.25,0,0,1,1.42-4,1.46,1.46,0,0,0,.07-.19l0,0-.41.43a9.17,9.17,0,0,1-1.75,1.41,1.76,1.76,0,0,1-.5.18.31.31,0,0,0-.26.18,26.82,26.82,0,0,1-2.23,3.46c-.35.44-.75.85-1.14,1.26a.68.68,0,0,1-.6.19,2.86,2.86,0,0,1-1.64-.75c-.26-.24-.49-.53-.74-.8l-.68,1.16A36.88,36.88,0,0,1,88.82,37a9.85,9.85,0,0,1-.94,1,.81.81,0,0,1-.68.25,2.48,2.48,0,0,1-2.09-1.78A5.93,5.93,0,0,1,85,35.38a13.13,13.13,0,0,1,.25-3A28,28,0,0,1,88,24.32a17.24,17.24,0,0,1,2.83-4,.72.72,0,0,1,.86-.18,2.71,2.71,0,0,1,1.19.87,1,1,0,0,1,.22.81,6.27,6.27,0,0,1-.17.75,16,16,0,0,1-1.38,2.86c-1.17,2-2.49,4-3.84,5.88a.76.76,0,0,0-.11.22c-.15.84-.34,1.67-.44,2.51S87,35.71,87,36.52a2.68,2.68,0,0,0,.1.69c0,.2.16.23.32.1a1,1,0,0,0,.23-.23c.41-.54.85-1.06,1.21-1.63C90,33.65,91.1,31.84,92.2,30a1.79,1.79,0,0,0,.2-.39c.3-.88.58-1.77.92-2.64a14.31,14.31,0,0,1,1.75-3.3.4.4,0,0,1,.52-.18c.32.11.63.25,1,.38a2.19,2.19,0,0,1,.11-.19c.32-.5.64-1,1-1.48a.56.56,0,0,1,.36-.17,3.17,3.17,0,0,1,2,.56.89.89,0,0,1,.43.79,2.73,2.73,0,0,1,0,.5,9.06,9.06,0,0,1-.62,1.93l-.07.2.08,0,2.51-1.87a.48.48,0,0,0,.12-.16c.17-.38.33-.77.51-1.15.51-1.09,1-2.17,1.56-3.26.11-.21.2-.24.43-.2a2.11,2.11,0,0,1,1,.46.55.55,0,0,1,.16.84l-.09.18c-.42.94-.86,1.88-1.27,2.84a62.63,62.63,0,0,0-2.38,6.38l0,.16a.45.45,0,0,0,.13-.15,25.74,25.74,0,0,1,4.27-5.62c.51-.49,1.08-.91,1.63-1.36a.45.45,0,0,1,.31-.09,2.54,2.54,0,0,1,1.33.84.29.29,0,0,1,0,.37,3.26,3.26,0,0,0-.27.48c-.58,1.27-1.18,2.54-1.73,3.82-.47,1.12-.89,2.27-1.32,3.4a2.78,2.78,0,0,0-.11.5m3.8-1a5.52,5.52,0,0,0,.19.63c.1.23.17.23.32,0a7.13,7.13,0,0,0,.68-.95c1.29-2.16,2.56-4.33,3.83-6.49,0-.06.07-.19,0-.22a.47.47,0,0,0-.28-.14,1.39,1.39,0,0,0-.54.19,5.45,5.45,0,0,0-.82.61,13.38,13.38,0,0,0-3,4.33,5.55,5.55,0,0,0-.47,2m-12.7-3.34A3.36,3.36,0,0,1,96,26.76a.9.9,0,0,1-.16-.39,3,3,0,0,1,0-.52.6.6,0,0,0-.11.12A19,19,0,0,0,94,31.3a4.18,4.18,0,0,0,0,1c0,.27.18.34.4.19A2.8,2.8,0,0,0,95,32a15.65,15.65,0,0,0,1.76-2.37c.32-.5.62-1,.94-1.55m-.81,16.85,0,0a.58.58,0,0,1,0,.14,2.1,2.1,0,0,1,0,1.83,2.45,2.45,0,0,1-.84.94,2.33,2.33,0,0,1-2,.39A.88.88,0,0,1,93.33,47,7.39,7.39,0,0,1,94,46a1.27,1.27,0,0,1,.81-.52,1.12,1.12,0,0,1,1.33,1.29,1.27,1.27,0,0,1-1.27,1,.48.48,0,0,1-.49-.37,1.46,1.46,0,0,0,0-.2h-.07a.43.43,0,0,0,0,.19.48.48,0,0,0,.37.39,1.21,1.21,0,0,0,1.2-.19,3.79,3.79,0,0,0,.64-.74,1.18,1.18,0,0,0-.67-1.78,2.21,2.21,0,0,0-2.95,2.25,1.69,1.69,0,0,0,1.46,1.61,2.89,2.89,0,0,0,1.89-.3,2.38,2.38,0,0,0,1.31-1.69c0-.18,0-.37.08-.55a.36.36,0,0,1,.06.2,2.29,2.29,0,0,1-.6,1.66.34.34,0,0,0,.22,0,.94.94,0,0,0,.72-.63,2.21,2.21,0,0,0,.1-1,2,2,0,0,0-.86-1.51,2,2,0,0,0-.33-.15M96,47.75l0,0a6.88,6.88,0,0,0,.53-.55,1.89,1.89,0,0,0,.35-1.13,1.8,1.8,0,0,0-.63-1.54,2.59,2.59,0,0,0-3-.09,4.5,4.5,0,0,0-1.7,2.27c-.13.38-.26.77-.4,1.15a1.71,1.71,0,0,1-.22.45,3,3,0,0,1-1.68,1.14l-.29.08v.05a1.18,1.18,0,0,0,.26,0l.73-.12A2.42,2.42,0,0,0,91.82,48c.2-.46.38-.93.62-1.36a5.32,5.32,0,0,1,.79-1.09A2.47,2.47,0,0,1,96,45a3.18,3.18,0,0,1,.43.25.8.8,0,0,0-.48-.49,2.11,2.11,0,0,0-1.24-.07,3.76,3.76,0,0,0-1.9,1.11,1.3,1.3,0,0,0-.25.39c-.37.72-.74,1.44-1.09,2.17a2.11,2.11,0,0,1-.65.71,2,2,0,0,1-.29.15c0-.05,0-.07,0-.08a2.4,2.4,0,0,0,1-1.17c.29-.62.55-1.25.84-1.87a2.66,2.66,0,0,1,.29-.45,3,3,0,0,1,1-.86,2.8,2.8,0,0,1,1.81-.35,1.21,1.21,0,0,1,1,.66,4,4,0,0,1,.23.84,1.28,1.28,0,0,1-.17,1c-.17.29-.37.55-.56.83m-7.19-1.82a2.14,2.14,0,0,1,.32.28,1.41,1.41,0,0,1-.35,2.12,2.86,2.86,0,0,1-1.51.47l-.55.05a1.57,1.57,0,0,0,1.13.19,2.09,2.09,0,0,0,1.35-.59,0,0,0,0,1,0,0h.13s0,.1,0,.13a1.3,1.3,0,0,1-.18.15l-.18.16,0,0c.34-.06.56-.36.84-.54l0,.06-.33.37s.06.05.07,0c.22,0,.46,0,.61-.27l.17-.21c.08-.09.15-.19.29,0,.17-.38.33-.72.48-1.07a.75.75,0,0,0-.23-.86,1.51,1.51,0,0,0-.21-.14c.05.2.09.35.12.49l-.07,0c-.08-.17-.14-.34-.22-.51a.44.44,0,0,0-.49-.25c.07.15.2.28.15.5-.12-.16-.21-.3-.31-.42a.54.54,0,0,0-.46-.2c.24.28.47.52.4.86a4.22,4.22,0,0,0-.36-.66c-.22-.28-.48-.34-.69-.21M92,22.22l-.08,0a20.84,20.84,0,0,0-3.84,7.58l.09-.09c.82-1.39,1.65-2.77,2.45-4.17a14.9,14.9,0,0,0,1.23-2.62c.07-.22.1-.45.15-.67m6.59,25.9a1.64,1.64,0,0,1-1.23,1.08.37.37,0,0,0-.17.16c-.07.11,0,.2.09.21a1.16,1.16,0,0,0,.37,0c.19-.06.37-.16.56-.2a.48.48,0,0,1,.36.06.43.43,0,0,0,.51.09,5.3,5.3,0,0,0,.59-.27.89.89,0,0,1,.68-.06.64.64,0,0,0,.3,0l.53-.2c.09,0,.2,0,.28,0,.5-.2,1-.4,1.47-.62a.45.45,0,0,0,.2-.63.75.75,0,0,0-.58-.42.57.57,0,0,0-.68.34c0,.12,0,.24.1.28a1.18,1.18,0,0,0,.42,0s.1-.09.11-.14-.07-.11-.11-.12-.08.06-.15.12-.09-.07-.1-.12a.21.21,0,0,1,.1-.13.28.28,0,0,1,.34.09.22.22,0,0,1,0,.32,1.1,1.1,0,0,1-.31.22,2.13,2.13,0,0,1-1.2.13.22.22,0,0,0-.19,0,1.59,1.59,0,0,1-1.59.26,3.94,3.94,0,0,1-.71-.41m1-24.52h0a1,1,0,0,0,0-.18c0-.08-.1-.2-.17-.22s-.19,0-.26.09a.85.85,0,0,0-.23.27,10.87,10.87,0,0,0-1.29,2.94,2.67,2.67,0,0,0-.1.63.25.25,0,0,0,.13.2,1,1,0,0,0,.63-.32c.36-.78.72-1.56,1-2.35a7.4,7.4,0,0,0,.29-1m-10,26.09v.05l1,.19a.83.83,0,0,0,.35,0c.36-.09.71-.19,1-.31a1.5,1.5,0,0,0,1-1.11.42.42,0,0,0,0-.27,2.2,2.2,0,0,1-.2-1.55l0-.18,0,0-.1.17c-.23.5-.46,1-.7,1.5A2.37,2.37,0,0,1,90,49.62c-.14,0-.29.05-.43.07M84.8,24.08l-.06,0-2.93,2.69.06.05c.58,0,1.16.08,1.74.1a.21.21,0,0,0,.15-.13c.17-.41.31-.83.47-1.24l.57-1.43m9,22.33.14,0a.78.78,0,0,1,.66.53c0,.1,0,.17-.08.22s-.08.1-.07.15a.27.27,0,0,0,.23.26,1.09,1.09,0,0,0,.75-.14,1,1,0,0,0,.54-.87.9.9,0,0,0-.56-.84,1.21,1.21,0,0,0-1.61.67m-6.34.88-.1-.12a.33.33,0,0,1-.08-.47.91.91,0,0,1,.23-.28c.47-.34,1.07-.3,1.26.3a1.37,1.37,0,0,1-.5,1.47,2.38,2.38,0,0,1-1.06.38l-1,.11a.5.5,0,0,0,.26.08,10.17,10.17,0,0,0,1.11-.11,2.1,2.1,0,0,0,1.5-.93,1.19,1.19,0,0,0-.35-1.63,1.39,1.39,0,0,0-1.76.47A.38.38,0,0,0,87,47a.65.65,0,0,0,.48.29m8.88,2,0-.06c-.31-.11-.62-.28-1-.06l-.07,0A2.94,2.94,0,0,1,93.8,49a2.39,2.39,0,0,1-.32-.16l-.17-.11a2.91,2.91,0,0,1-2,1.29c.23,0,.45.08.67.11a.37.37,0,0,0,.15,0,3.59,3.59,0,0,1,.38-.21,2.26,2.26,0,0,0,.87-.45,1.18,1.18,0,0,1,.19-.11l0,0-.18.29.61-.14c.06,0,.17,0,.2.05s.13.06.21,0a4.14,4.14,0,0,1,.6-.18c.13,0,.27,0,.28.24l1.08-.36M96,49a2.18,2.18,0,0,0,1.67-.09,1.77,1.77,0,0,0,.9-1.85,1.49,1.49,0,0,0-.5-1.11c0,.3.12.55.14.81A1.86,1.86,0,0,1,98,48a1,1,0,0,1-1.1.47.19.19,0,0,0-.13,0c-.24.16-.47.33-.74.53m-.26-1.1h0l-.13,0a1.32,1.32,0,0,1-1.25-.07,1.22,1.22,0,0,1-.38-.43c-.11-.21,0-.35.23-.4l.16,0a.4.4,0,0,0-.62-.18.71.71,0,0,0,.14,1.2,1.81,1.81,0,0,0,1.86-.13m-.28,2.3v0l1-.1c.15,0,.14-.15.11-.23s-.14-.1-.19-.08c-.32.12-.63.26-.94.39m3.11-.42V49.7c-.42-.32-.69.14-1,.21V50l1-.2M93.46,50a2.22,2.22,0,0,0-.93.14,1.19,1.19,0,0,0,.93-.14m-5.27-.66a.55.55,0,0,0,.71-.1l-.71.1m-.52-.2c.22.2.44.09.66,0Zm12.46.2V49.3l-.59.17,0,.05.58-.17" transform="translate(-70.29 -8.39)"/><polygon class="cls-1" points="26.5 28.7 26.62 28.7 26.86 28.48 26.68 28.44 26.5 28.7"/><polygon class="cls-1" points="22.66 30.31 22.52 30.31 23.14 28.84 23.36 28.84 23.95 30.31 23.8 30.31 23.26 28.99 23.24 28.99 22.66 30.31"/><rect class="cls-1" x="22.8" y="29.78" width="0.88" height="0.13"/><rect class="cls-1" x="24.49" y="28.84" width="0.15" height="1.47"/><rect class="cls-1" x="24.6" y="28.84" width="0.94" height="0.15"/><rect class="cls-1" x="24.6" y="29.53" width="0.83" height="0.15"/><rect class="cls-1" x="26.08" y="28.84" width="0.15" height="1.47"/><rect class="cls-1" x="26.19" y="28.84" width="0.94" height="0.15"/><rect class="cls-1" x="26.19" y="30.16" width="0.94" height="0.15"/><rect class="cls-1" x="26.19" y="29.5" width="0.83" height="0.15"/><path class="cls-1" d="M91.86,38.75a.78.78,0,0,1-.79-.77.77.77,0,0,1,.79-.76.8.8,0,0,1,.54.2l-.1.12a.64.64,0,0,0-1.08.44.63.63,0,0,0,.64.61.66.66,0,0,0,.48-.2l.11.1a.81.81,0,0,1-.59.26" transform="translate(-70.29 -8.39)"/></svg>