<svg version="1.1" xmlns="http://www.w3.org/2000/svg" viewBox="0 0 1365.6354370117188 725.3960138243466" width="2731.2708740234375" height="1450.7920276486932" filter="invert(93%) hue-rotate(180deg)">
  <!-- svg-source:excalidraw -->
  
  <defs>
    <style>
      @font-face {
        font-family: "Virgil";
        src: url("https://excalidraw.com/Virgil.woff2");
      }
      @font-face {
        font-family: "Cascadia";
        src: url("https://excalidraw.com/Cascadia.woff2");
      }
    </style>
  </defs>
  <rect x="0" y="0" width="1365.6354370117188" height="725.3960138243466" fill="#ffffff"></rect><g stroke-linecap="round" transform="translate(369.364990234375 148.56964111328125) rotate(0 33.891204833984375 30.149139404296875)"><path d="M-1.33 -0.94 C19.34 0.78, 38.37 0.21, 69.75 1.96 M0.83 -0.7 C25.9 0.73, 50.07 0.24, 67.78 0.83 M66.62 0.99 C68.95 17.56, 67.97 32.86, 66.65 62.1 M67.91 0.08 C67.26 13.17, 68.38 26.54, 67.17 59.61 M66.3 59.09 C43.9 61.12, 22.33 58.95, 1.23 61.83 M67.86 60.14 C52.31 59.14, 39.18 60.86, -0.23 60.16 M-0.92 58.42 C0.1 46.88, -0.93 33.21, -0.04 0.12 M-0.57 60.16 C1 41.27, 0.82 21.95, -0.89 0.66" stroke="#000000" stroke-width="1" fill="none"></path></g><g stroke-linecap="round" transform="translate(457.44946140254456 148.38711547851562) rotate(0 33.891204833984375 30.149139404296875)"><path d="M-0.37 -1.32 C17.47 1.25, 30.77 -1.39, 66.87 0.15 M0.53 0.87 C19.02 0.44, 37.9 0.22, 66.81 -0.46 M66.63 1.92 C67.7 12.54, 68.1 24.16, 68.51 59.16 M68.39 -0.06 C67.36 17.89, 67.88 33.76, 68.22 60.12 M67.44 59.87 C44.13 62.06, 17.57 59.07, 1.83 58.91 M68.72 59.75 C51.69 60.88, 34.46 59.85, 0.24 60.88 M-0.89 60.44 C0.86 38.71, -0.76 21.3, 1.95 0.2 M0.19 59.8 C-0.83 43.96, 0.51 27.77, -0.19 -0.69" stroke="#000000" stroke-width="1" fill="none"></path></g><g stroke-linecap="round" transform="translate(559.8985900878906 148.13461303710938) rotate(0 33.891204833984375 30.149139404296875)"><path d="M1.83 -1.38 C25.73 0.55, 54.44 2.22, 66.68 0.3 M0.24 0.58 C23.38 -0.16, 45.07 -0.02, 67.86 0.25 M69.73 0.2 C67 15.04, 65.57 29.05, 66.78 59.08 M67.59 -0.69 C69.08 20.44, 68.79 41.58, 67.64 59.76 M68.27 61.16 C50.18 59.49, 31.23 61.49, 1.35 60.22 M68.61 60.85 C42.31 59.65, 17.72 60.25, -0.1 59.89 M0.87 60.46 C-2.23 40.3, -0.63 24.7, 0.27 1.22 M0.2 60.26 C0.97 42.5, 1.4 24.11, 0.62 -0.14" stroke="#000000" stroke-width="1" fill="none"></path></g><g stroke-linecap="round" transform="translate(640.3440246582031 148.83029174804688) rotate(0 33.891204833984375 30.149139404296875)"><path d="M1.22 0.12 C17.31 -0.88, 38.45 -0.17, 68.69 1.28 M-0.14 0.74 C26.15 -0.38, 51.97 0.51, 67.12 -0.82 M69.01 0.03 C68.75 19.58, 65.64 41.83, 67.4 60.67 M67.03 -0.25 C66.68 13.6, 68 25.21, 67.4 59.53 M69.25 58.32 C55.98 61.62, 38.98 59.83, 0.53 59.73 M68.32 59.61 C45.39 61.01, 25.11 60.05, 0.37 59.43 M0.25 61.12 C-0.36 45.54, -1.09 32.62, -1.59 0.93 M0.38 61.23 C-0.75 47.36, -0.78 34.63, 0.59 0.5" stroke="#000000" stroke-width="1" fill="none"></path></g><g stroke-linecap="round" transform="translate(715.0555899629977 147.13235956723292) rotate(0 33.891204833984375 30.149139404296875)"><path d="M-1.33 1.4 C26.81 -1.71, 51.86 1.58, 69.57 1.36 M-0.36 -0.93 C13.84 -0.14, 29 1.48, 68.39 0.18 M67.99 -1.85 C68.97 16.61, 69.44 38.5, 66.87 60.02 M68.47 -0.67 C67.54 16.82, 68.21 33.11, 67.13 59.45 M66.2 58.65 C47.45 59.51, 23.09 61.17, -1.47 58.35 M67.7 60.95 C51.07 59.55, 33.19 60.64, 0.87 60.35 M-1.82 60.46 C1.22 45.94, -0.83 27.01, -1.5 -0.18 M0.35 60.36 C0.95 42.98, 0.3 27.19, -0.62 0.76" stroke="#000000" stroke-width="1" fill="none"></path></g><g stroke-linecap="round" transform="translate(789.6194763183594 144.77252197265625) rotate(0 33.891204833984375 30.149139404296875)"><path d="M1.3 1.52 C12.18 0.77, 28.42 1.79, 67.88 -0.75 M0.08 0.46 C17.63 0.05, 32.98 -0.13, 67.69 -0.26 M67.91 1.27 C66.44 14.97, 67.86 28.72, 69.31 62.07 M66.93 0.94 C67.57 18.9, 66.53 37.35, 68.74 59.42 M68.96 62.16 C40.64 58.69, 16.45 59.63, -0.49 61.3 M68.77 59.7 C50.55 60.65, 32.03 59.88, 0.28 60.57 M-1.42 58.71 C1.01 46.13, 1.18 31.96, 0.23 -1.12 M0.33 60.3 C-1.2 48.23, -1.03 35.58, 0.58 -0.51" stroke="#000000" stroke-width="1" fill="none"></path></g><g stroke-linecap="round" transform="translate(865.9994506835938 143.81988525390625) rotate(0 33.891204833984375 30.149139404296875)"><path d="M0.23 -1.12 C15.58 2.28, 33.11 1.25, 67.78 -1.37 M0.58 -0.51 C24.66 -0.87, 48.62 -1.07, 67.86 0.75 M66.97 0.3 C68.15 11.63, 69.59 24.76, 68.04 59.8 M67.91 0.85 C67.28 23.61, 67.61 45.42, 67.9 59.65 M69.2 59.25 C46.83 61.64, 27.63 62.96, 0.98 58.69 M67.41 60.63 C47.92 61.26, 30.37 60.17, 0.83 61.09 M1.53 59.54 C1.97 47.61, 1.66 34.1, -1.67 0.99 M-0.78 60.12 C-0.72 42.19, 0.28 25.86, -0.45 -0.16" stroke="#000000" stroke-width="1" fill="none"></path></g><g stroke-linecap="round" transform="translate(939.504638671875 144.61611938476562) rotate(0 33.891204833984375 30.149139404296875)"><path d="M-1.12 -1.8 C27.33 -1.72, 51.93 -0.08, 66.41 1.2 M-0.51 0.25 C16.37 -0.59, 32.99 -0.32, 68.54 -0.79 M68.08 0.29 C66.37 20.62, 66.16 38.03, 67.28 61.8 M68.63 -0.14 C68.29 14.67, 67.48 29.09, 67.14 60.23 M66.73 59.23 C54.24 60.39, 41.34 61.76, -1.61 59.94 M68.11 59.55 C42.47 60.85, 15.64 60.87, 0.79 59.32 M-0.76 61.78 C-0.58 48.22, -1.91 32.13, 0.99 -0.16 M-0.18 60.15 C-0.55 37.41, 0.72 12.38, -0.16 0.43" stroke="#000000" stroke-width="1" fill="none"></path></g><g transform="translate(347.8515431365771 250.26803936937307) rotate(0 303.50000000000006 34)"><text x="0" y="48" font-family="Virgil, Segoe UI Emoji" font-size="53.88033436462946px" fill="#000000" text-anchor="start" style="white-space: pre;" direction="ltr">128 64 32 16 8 4 2 1</text></g><g transform="translate(190.00068722538424 54.934357269329496) rotate(0 127.5 25)"><text x="0" y="18" font-family="Virgil, Segoe UI Emoji" font-size="20px" fill="#000000" text-anchor="start" style="white-space: pre;" direction="ltr">si todos están encendidos</text><text x="0" y="43" font-family="Virgil, Segoe UI Emoji" font-size="20px" fill="#000000" text-anchor="start" style="white-space: pre;" direction="ltr">11111111 = 255</text></g><g transform="translate(524.3858642578125 10) rotate(0 139 43.5)"><text x="0" y="61" font-family="Virgil, Segoe UI Emoji" font-size="68.33992513020834px" fill="#000000" text-anchor="start" style="white-space: pre;" direction="ltr">dec = 17</text></g><g transform="translate(947.7063598632812 47.257476806640625) rotate(0 80 12.5)"><text x="0" y="18" font-family="Virgil, Segoe UI Emoji" font-size="20px" fill="#000000" text-anchor="start" style="white-space: pre;" direction="ltr">binary_model[8]</text></g><g transform="translate(1126.2029418945312 246.76962280273438) rotate(0 108 50)"><text x="0" y="18" font-family="Virgil, Segoe UI Emoji" font-size="20px" fill="#000000" text-anchor="start" style="white-space: pre;" direction="ltr">byte = 8bits</text><text x="0" y="43" font-family="Virgil, Segoe UI Emoji" font-size="20px" fill="#000000" text-anchor="start" style="white-space: pre;" direction="ltr"></text><text x="0" y="68" font-family="Virgil, Segoe UI Emoji" font-size="20px" fill="#000000" text-anchor="start" style="white-space: pre;" direction="ltr">o sea 8 posiciones en</text><text x="0" y="93" font-family="Virgil, Segoe UI Emoji" font-size="20px" fill="#000000" text-anchor="start" style="white-space: pre;" direction="ltr">tu array</text></g><g transform="translate(10 198.69671630859375) rotate(0 115.5 12.5)"><text x="0" y="18" font-family="Virgil, Segoe UI Emoji" font-size="20px" fill="#000000" text-anchor="start" style="white-space: pre;" direction="ltr">SOLO USAS UN BUCLE</text></g><g transform="translate(279.5251790647113 416.88008899641477) rotate(0 157 62.5)"><text x="0" y="18" font-family="Virgil, Segoe UI Emoji" font-size="20px" fill="#000000" text-anchor="start" style="white-space: pre;" direction="ltr">Solo si (dec &gt;= binary_model[i])</text><text x="0" y="43" font-family="Virgil, Segoe UI Emoji" font-size="20px" fill="#000000" text-anchor="start" style="white-space: pre;" direction="ltr">    dec = dec - binary_model[i]</text><text x="0" y="68" font-family="Virgil, Segoe UI Emoji" font-size="20px" fill="#000000" text-anchor="start" style="white-space: pre;" direction="ltr">    binary_model[i] = 1</text><text x="0" y="93" font-family="Virgil, Segoe UI Emoji" font-size="20px" fill="#000000" text-anchor="start" style="white-space: pre;" direction="ltr"></text><text x="0" y="118" font-family="Virgil, Segoe UI Emoji" font-size="20px" fill="#000000" text-anchor="start" style="white-space: pre;" direction="ltr">FinSi</text></g><g transform="translate(689.042787237789 490.3960138243466) rotate(0 157.00000000000006 112.5)"><text x="0" y="18" font-family="Virgil, Segoe UI Emoji" font-size="20px" fill="#000000" text-anchor="start" style="white-space: pre;" direction="ltr">Si (dec &gt;= binary_model[i])</text><text x="0" y="43" font-family="Virgil, Segoe UI Emoji" font-size="20px" fill="#000000" text-anchor="start" style="white-space: pre;" direction="ltr">    dec = dec - binary_model[i]</text><text x="0" y="68" font-family="Virgil, Segoe UI Emoji" font-size="20px" fill="#000000" text-anchor="start" style="white-space: pre;" direction="ltr">    binary_model[i] = 1</text><text x="0" y="93" font-family="Virgil, Segoe UI Emoji" font-size="20px" fill="#000000" text-anchor="start" style="white-space: pre;" direction="ltr"></text><text x="0" y="118" font-family="Virgil, Segoe UI Emoji" font-size="20px" fill="#000000" text-anchor="start" style="white-space: pre;" direction="ltr">SiNo</text><text x="0" y="143" font-family="Virgil, Segoe UI Emoji" font-size="20px" fill="#000000" text-anchor="start" style="white-space: pre;" direction="ltr">    Si (dec &lt; binary_model[i])</text><text x="0" y="168" font-family="Virgil, Segoe UI Emoji" font-size="20px" fill="#000000" text-anchor="start" style="white-space: pre;" direction="ltr">    binary_model[i] = 0</text><text x="0" y="193" font-family="Virgil, Segoe UI Emoji" font-size="20px" fill="#000000" text-anchor="start" style="white-space: pre;" direction="ltr"></text><text x="0" y="218" font-family="Virgil, Segoe UI Emoji" font-size="20px" fill="#000000" text-anchor="start" style="white-space: pre;" direction="ltr">FinSi</text></g><g transform="translate(679.6354370117188 390.35585021972656) rotate(0 338 43.5)"><text x="0" y="61" font-family="Virgil, Segoe UI Emoji" font-size="68.33992513020834px" fill="#000000" text-anchor="start" style="white-space: pre;" direction="ltr">dec = 17 -&gt; dec = 0</text></g><g transform="translate(666.7582740292726 167.35931396484375) rotate(0 3.5 12.5)"><text x="0" y="18" font-family="Virgil, Segoe UI Emoji" font-size="20px" fill="#000000" text-anchor="start" style="white-space: pre;" direction="ltr">1</text></g><g transform="translate(971.2116088867188 161.34375) rotate(0 3.5 12.5)"><text x="0" y="18" font-family="Virgil, Segoe UI Emoji" font-size="20px" fill="#000000" text-anchor="start" style="white-space: pre;" direction="ltr">1</text></g><g transform="translate(740.9467947969821 164.7814989715298) rotate(0 8 12.5)"><text x="8" y="18" font-family="Virgil, Segoe UI Emoji" font-size="20px" fill="#000000" text-anchor="middle" style="white-space: pre;" direction="ltr">0</text></g><g transform="translate(815.5106811523438 162.42166137695312) rotate(0 8 12.5)"><text x="8" y="18" font-family="Virgil, Segoe UI Emoji" font-size="20px" fill="#000000" text-anchor="middle" style="white-space: pre;" direction="ltr">0</text></g><g transform="translate(891.8906555175781 161.46902465820312) rotate(0 8 12.5)"><text x="8" y="18" font-family="Virgil, Segoe UI Emoji" font-size="20px" fill="#000000" text-anchor="middle" style="white-space: pre;" direction="ltr">0</text></g><g transform="translate(585.789794921875 165.78375244140625) rotate(0 8 12.5)"><text x="8" y="18" font-family="Virgil, Segoe UI Emoji" font-size="20px" fill="#000000" text-anchor="middle" style="white-space: pre;" direction="ltr">0</text></g><g transform="translate(483.34066623652893 166.0362548828125) rotate(0 8 12.5)"><text x="8" y="18" font-family="Virgil, Segoe UI Emoji" font-size="20px" fill="#000000" text-anchor="middle" style="white-space: pre;" direction="ltr">0</text></g><g transform="translate(395.2561950683594 166.21878051757812) rotate(0 8 12.5)"><text x="8" y="18" font-family="Virgil, Segoe UI Emoji" font-size="20px" fill="#000000" text-anchor="middle" style="white-space: pre;" direction="ltr">0</text></g><g transform="translate(589.351348147869 391.04085559255304) rotate(0 12.149851163733501 75.42388542857526)" stroke="none"><path fill="#000000" d="M 0,-2.17 Q 0,-2.17 2.99,-2.05 5.99,-1.94 8.93,-1.85 11.88,-1.77 14.46,-1.71 17.04,-1.64 18.81,-1.68 20.58,-1.71 22.01,-1.88 23.44,-2.05 24.63,-1.52 25.83,-0.99 26.22,0.53 26.61,2.07 26.48,4.33 26.34,6.58 26.14,8.37 25.94,10.16 25.66,12.40 25.37,14.64 25.10,17.38 24.82,20.13 24.61,23.25 24.41,26.37 24.23,29.62 24.06,32.88 23.88,36.12 23.70,39.36 23.57,42.44 23.45,45.52 23.30,48.37 23.15,51.21 22.98,53.91 22.82,56.61 22.75,59.39 22.68,62.17 22.64,65.21 22.61,68.24 22.59,71.08 22.57,73.92 22.57,76.36 22.56,78.80 22.56,80.89 22.56,82.99 22.64,84.68 22.72,86.37 22.82,87.70 22.92,89.03 23.01,90.32 23.10,91.61 23.14,93.13 23.19,94.65 23.19,96.41 23.18,98.18 23.11,100.25 23.04,102.32 22.97,104.42 22.91,106.52 22.88,108.40 22.85,110.29 22.82,111.85 22.79,113.41 22.76,114.63 22.72,115.85 22.70,117.38 22.67,118.92 22.75,120.16 22.82,121.41 22.91,122.86 22.99,124.32 23.06,125.54 23.13,126.77 23.20,127.84 23.27,128.90 23.36,130.20 23.45,131.49 23.50,132.83 23.54,134.16 23.57,135.37 23.59,136.57 23.63,137.80 23.66,139.02 23.63,140.15 23.60,141.28 23.55,142.40 23.49,143.53 23.50,144.63 23.51,145.73 23.51,146.96 23.51,148.18 23.52,149.37 23.52,150.55 22.72,151.80 21.92,153.06 20.84,153.68 19.77,154.31 18.09,154.17 16.41,154.04 13.64,153.40 10.87,152.76 7.99,152.23 5.11,151.69 4.65,151.52 4.20,151.35 3.82,151.04 3.44,150.73 3.18,150.32 2.92,149.90 2.81,149.43 2.69,148.95 2.74,148.46 2.78,147.98 2.98,147.53 3.17,147.08 3.50,146.72 3.83,146.36 4.26,146.12 4.69,145.89 5.17,145.80 5.65,145.71 6.13,145.78 6.62,145.85 7.05,146.07 7.49,146.29 7.83,146.64 8.17,146.99 8.39,147.43 8.60,147.87 8.66,148.35 8.72,148.84 8.63,149.32 8.53,149.80 8.29,150.22 8.04,150.64 7.68,150.97 7.31,151.29 6.86,151.48 6.41,151.67 5.92,151.70 5.43,151.74 4.96,151.62 4.49,151.50 4.08,151.23 3.67,150.96 3.37,150.58 3.06,150.20 2.90,149.73 2.73,149.27 2.72,148.79 2.72,148.30 2.86,147.83 3.01,147.37 3.30,146.97 3.59,146.58 3.99,146.30 4.39,146.01 4.85,145.88 5.32,145.74 5.81,145.75 6.30,145.77 6.30,145.77 6.30,145.77 9.01,146.32 11.72,146.87 15.20,147.05 18.68,147.23 17.57,147.70 16.45,148.18 16.45,146.95 16.46,145.72 16.48,144.52 16.51,143.33 16.58,142.26 16.65,141.19 16.78,140.10 16.91,139.02 16.94,137.80 16.98,136.57 17.00,135.37 17.03,134.16 17.08,132.83 17.12,131.49 17.21,130.20 17.30,128.90 17.37,127.83 17.44,126.76 17.52,125.53 17.59,124.30 17.69,122.81 17.78,121.32 17.94,119.89 18.10,118.45 18.42,116.96 18.73,115.47 18.92,114.33 19.11,113.19 19.26,111.70 19.42,110.21 19.47,108.37 19.51,106.52 19.45,104.42 19.39,102.32 19.32,100.25 19.24,98.18 19.24,96.41 19.23,94.65 19.28,93.13 19.33,91.61 19.41,90.32 19.50,89.03 19.60,87.70 19.71,86.37 19.79,84.68 19.87,82.98 19.88,80.89 19.88,78.79 19.88,76.35 19.88,73.91 19.89,71.07 19.89,68.22 19.91,65.16 19.93,62.11 19.98,59.28 20.03,56.45 20.16,53.77 20.29,51.08 20.40,48.26 20.50,45.43 20.57,42.33 20.63,39.23 20.73,36.00 20.83,32.77 20.89,29.49 20.95,26.22 21.01,23.06 21.06,19.90 21.13,17.13 21.20,14.36 21.22,12.10 21.23,9.83 21.28,7.98 21.33,6.13 21.47,4.81 21.60,3.48 22.52,2.76 23.44,2.05 22.01,1.88 20.58,1.71 18.81,1.68 17.04,1.64 14.46,1.71 11.88,1.77 8.93,1.85 5.99,1.94 2.99,2.05 0,2.17 -0.25,2.13 -0.51,2.10 -0.76,2.01 -1.00,1.92 -1.22,1.77 -1.43,1.62 -1.61,1.42 -1.78,1.23 -1.90,1.00 -2.02,0.76 -2.09,0.51 -2.15,0.26 -2.15,-0.00 -2.15,-0.26 -2.09,-0.51 -2.02,-0.76 -1.90,-1.00 -1.78,-1.23 -1.61,-1.42 -1.43,-1.62 -1.22,-1.77 -1.00,-1.92 -0.76,-2.01 -0.51,-2.10 -0.25,-2.13 0.00,-2.17 0.00,-2.17 L 0,-2.17 Z"></path></g><g transform="translate(262.2324681570796 388.0345928672823) rotate(0 -2.90804364189691 80.90263141179094)" stroke="none"><path fill="#000000" d="M 0,2.16 Q 0,2.16 -1.69,2.15 -3.38,2.13 -5.47,2.03 -7.56,1.93 -9.71,1.85 -11.86,1.77 -13.83,1.77 -15.81,1.78 -17.59,1.87 -19.36,1.96 -20.76,2.13 -22.16,2.30 -23.50,2.57 -24.85,2.84 -23.95,4.13 -23.06,5.41 -22.74,6.55 -22.42,7.69 -21.95,9.31 -21.47,10.93 -20.99,12.92 -20.51,14.92 -20.02,16.97 -19.54,19.02 -19.11,21.14 -18.68,23.26 -18.33,25.29 -17.99,27.31 -17.73,29.47 -17.48,31.63 -17.21,34.44 -16.94,37.25 -16.60,40.88 -16.27,44.50 -16.01,48.56 -15.75,52.62 -15.65,56.68 -15.54,60.73 -15.50,64.57 -15.46,68.40 -15.45,71.81 -15.44,75.22 -15.43,78.39 -15.43,81.57 -15.43,84.46 -15.43,87.36 -15.43,89.96 -15.44,92.56 -15.44,95.13 -15.44,97.70 -15.44,100.32 -15.44,102.94 -15.44,105.73 -15.44,108.53 -15.44,111.70 -15.45,114.88 -15.45,118.44 -15.45,122.01 -15.45,125.71 -15.45,129.41 -15.45,133.14 -15.45,136.88 -15.45,140.29 -15.45,143.70 -15.45,146.31 -15.45,148.91 -15.39,150.78 -15.34,152.66 -15.27,153.90 -15.19,155.14 -15.11,156.27 -15.03,157.40 -13.89,157.50 -12.75,157.60 -11.48,157.97 -10.22,158.35 -8.94,158.43 -7.66,158.51 -5.39,158.82 -3.12,159.13 -0.94,159.33 1.23,159.54 3.34,159.67 5.45,159.81 7.43,159.87 9.41,159.93 11.18,159.93 12.95,159.92 14.40,159.87 15.84,159.81 17.72,159.77 19.59,159.73 19.92,159.78 20.25,159.84 20.55,159.99 20.84,160.15 21.07,160.40 21.30,160.64 21.44,160.94 21.58,161.25 21.62,161.58 21.65,161.91 21.58,162.24 21.51,162.57 21.34,162.85 21.16,163.14 20.91,163.36 20.65,163.58 20.34,163.70 20.03,163.82 19.70,163.84 19.36,163.86 19.04,163.77 18.72,163.68 18.44,163.49 18.16,163.30 17.96,163.04 17.76,162.77 17.65,162.45 17.54,162.13 17.54,161.80 17.54,161.46 17.65,161.15 17.76,160.83 17.96,160.56 18.16,160.30 18.44,160.11 18.72,159.92 19.04,159.83 19.36,159.74 19.70,159.76 20.03,159.78 20.34,159.90 20.66,160.03 20.91,160.24 21.17,160.46 21.34,160.75 21.51,161.03 21.58,161.36 21.66,161.69 21.62,162.02 21.58,162.36 21.44,162.66 21.30,162.96 21.07,163.21 20.84,163.45 20.54,163.61 20.25,163.76 19.92,163.82 19.59,163.87 19.59,163.87 19.59,163.87 17.71,163.83 15.84,163.78 14.39,163.72 12.94,163.67 11.16,163.65 9.39,163.64 7.40,163.68 5.40,163.72 3.26,163.82 1.13,163.91 -1.12,164.01 -3.37,164.11 -6.78,164.04 -10.19,163.98 -11.55,163.61 -12.91,163.25 -14.21,162.47 -15.50,161.69 -16.49,160.93 -17.48,160.16 -18.16,159.07 -18.85,157.98 -18.68,156.50 -18.51,155.03 -18.35,153.84 -18.19,152.66 -18.13,150.78 -18.08,148.91 -18.08,146.31 -18.08,143.70 -18.08,140.29 -18.08,136.88 -18.08,133.14 -18.08,129.41 -18.08,125.71 -18.08,122.01 -18.08,118.44 -18.08,114.88 -18.08,111.70 -18.08,108.53 -18.08,105.73 -18.09,102.94 -18.09,100.32 -18.09,97.70 -18.09,95.13 -18.10,92.56 -18.10,89.96 -18.11,87.36 -18.11,84.47 -18.12,81.57 -18.14,78.40 -18.15,75.24 -18.18,71.84 -18.21,68.44 -18.28,64.63 -18.34,60.81 -18.47,56.82 -18.60,52.82 -18.90,48.81 -19.20,44.80 -19.60,41.19 -19.99,37.59 -20.33,34.84 -20.68,32.09 -21.03,30.03 -21.39,27.96 -21.79,26.04 -22.19,24.11 -22.76,22.12 -23.34,20.12 -24.02,18.15 -24.71,16.18 -25.39,14.32 -26.06,12.46 -26.71,10.73 -27.36,9.00 -27.77,7.41 -28.17,5.81 -28.23,4.57 -28.29,3.33 -27.86,1.48 -27.44,-0.37 -26.31,-0.94 -25.18,-1.52 -23.80,-1.49 -22.42,-1.47 -20.97,-1.50 -19.51,-1.53 -17.69,-1.59 -15.87,-1.64 -13.86,-1.70 -11.86,-1.77 -9.71,-1.85 -7.56,-1.93 -5.47,-2.03 -3.38,-2.13 -1.69,-2.15 0,-2.16 0.25,-2.13 0.51,-2.09 0.76,-2.00 1.00,-1.91 1.21,-1.76 1.43,-1.61 1.60,-1.42 1.77,-1.22 1.90,-0.99 2.02,-0.76 2.08,-0.51 2.14,-0.26 2.14,0.00 2.14,0.26 2.08,0.51 2.02,0.76 1.90,0.99 1.77,1.22 1.60,1.42 1.43,1.61 1.21,1.76 1.00,1.91 0.76,2.00 0.51,2.09 0.25,2.13 -0.00,2.16 -0.00,2.16 L 0,2.16 Z"></path></g></svg>