<svg version="1.1" xmlns="http://www.w3.org/2000/svg" viewBox="0 0 3003.559943898669 1660.0559886359351" width="6007.119887797338" height="3320.1119772718703">
  <!-- svg-source:excalidraw -->
  
  <defs>
    <style>
      @font-face {
        font-family: "Virgil";
        src: url("https://excalidraw.com/Virgil.woff2");
      }
      @font-face {
        font-family: "Cascadia";
        src: url("https://excalidraw.com/Cascadia.woff2");
      }
    </style>
  </defs>
  <rect x="0" y="0" width="3003.559943898669" height="1660.0559886359351" fill="#ffffff"></rect><g stroke-linecap="round" transform="translate(1552.4970543279962 234.70492673920046) rotate(0 33.891204833984375 30.149139404296875)"><path d="M-1.33 -0.94 C19.34 0.78, 38.37 0.21, 69.75 1.96 M0.83 -0.7 C25.9 0.73, 50.07 0.24, 67.78 0.83 M66.62 0.99 C68.95 17.56, 67.97 32.86, 66.65 62.1 M67.91 0.08 C67.26 13.17, 68.38 26.54, 67.17 59.61 M66.3 59.09 C43.9 61.12, 22.33 58.95, 1.23 61.83 M67.86 60.14 C52.31 59.14, 39.18 60.86, -0.23 60.16 M-0.92 58.42 C0.1 46.88, -0.93 33.21, -0.04 0.12 M-0.57 60.16 C1 41.27, 0.82 21.95, -0.89 0.66" stroke="#000000" stroke-width="1" fill="none"></path></g><g stroke-linecap="round" transform="translate(1640.5815254961658 234.52240110443483) rotate(0 33.891204833984375 30.149139404296875)"><path d="M-0.37 -1.32 C17.47 1.25, 30.77 -1.39, 66.87 0.15 M0.53 0.87 C19.02 0.44, 37.9 0.22, 66.81 -0.46 M66.63 1.92 C67.7 12.54, 68.1 24.16, 68.51 59.16 M68.39 -0.06 C67.36 17.89, 67.88 33.76, 68.22 60.12 M67.44 59.87 C44.13 62.06, 17.57 59.07, 1.83 58.91 M68.72 59.75 C51.69 60.88, 34.46 59.85, 0.24 60.88 M-0.89 60.44 C0.86 38.71, -0.76 21.3, 1.95 0.2 M0.19 59.8 C-0.83 43.96, 0.51 27.77, -0.19 -0.69" stroke="#000000" stroke-width="1" fill="none"></path></g><g stroke-linecap="round" transform="translate(1743.0306541815119 234.26989866302858) rotate(0 33.891204833984375 30.149139404296875)"><path d="M1.83 -1.38 C25.73 0.55, 54.44 2.22, 66.68 0.3 M0.24 0.58 C23.38 -0.16, 45.07 -0.02, 67.86 0.25 M69.73 0.2 C67 15.04, 65.57 29.05, 66.78 59.08 M67.59 -0.69 C69.08 20.44, 68.79 41.58, 67.64 59.76 M68.27 61.16 C50.18 59.49, 31.23 61.49, 1.35 60.22 M68.61 60.85 C42.31 59.65, 17.72 60.25, -0.1 59.89 M0.87 60.46 C-2.23 40.3, -0.63 24.7, 0.27 1.22 M0.2 60.26 C0.97 42.5, 1.4 24.11, 0.62 -0.14" stroke="#000000" stroke-width="1" fill="none"></path></g><g stroke-linecap="round" transform="translate(1823.4760887518244 234.96557737396608) rotate(0 33.891204833984375 30.149139404296875)"><path d="M1.22 0.12 C17.31 -0.88, 38.45 -0.17, 68.69 1.28 M-0.14 0.74 C26.15 -0.38, 51.97 0.51, 67.12 -0.82 M69.01 0.03 C68.75 19.58, 65.64 41.83, 67.4 60.67 M67.03 -0.25 C66.68 13.6, 68 25.21, 67.4 59.53 M69.25 58.32 C55.98 61.62, 38.98 59.83, 0.53 59.73 M68.32 59.61 C45.39 61.01, 25.11 60.05, 0.37 59.43 M0.25 61.12 C-0.36 45.54, -1.09 32.62, -1.59 0.93 M0.38 61.23 C-0.75 47.36, -0.78 34.63, 0.59 0.5" stroke="#000000" stroke-width="1" fill="none"></path></g><g stroke-linecap="round" transform="translate(1898.187654056619 233.26764519315213) rotate(0 33.891204833984375 30.149139404296875)"><path d="M-1.33 1.4 C26.81 -1.71, 51.86 1.58, 69.57 1.36 M-0.36 -0.93 C13.84 -0.14, 29 1.48, 68.39 0.18 M67.99 -1.85 C68.97 16.61, 69.44 38.5, 66.87 60.02 M68.47 -0.67 C67.54 16.82, 68.21 33.11, 67.13 59.45 M66.2 58.65 C47.45 59.51, 23.09 61.17, -1.47 58.35 M67.7 60.95 C51.07 59.55, 33.19 60.64, 0.87 60.35 M-1.82 60.46 C1.22 45.94, -0.83 27.01, -1.5 -0.18 M0.35 60.36 C0.95 42.98, 0.3 27.19, -0.62 0.76" stroke="#000000" stroke-width="1" fill="none"></path></g><g stroke-linecap="round" transform="translate(1972.7515404119806 230.90780759857546) rotate(0 33.891204833984375 30.149139404296875)"><path d="M1.3 1.52 C12.18 0.77, 28.42 1.79, 67.88 -0.75 M0.08 0.46 C17.63 0.05, 32.98 -0.13, 67.69 -0.26 M67.91 1.27 C66.44 14.97, 67.86 28.72, 69.31 62.07 M66.93 0.94 C67.57 18.9, 66.53 37.35, 68.74 59.42 M68.96 62.16 C40.64 58.69, 16.45 59.63, -0.49 61.3 M68.77 59.7 C50.55 60.65, 32.03 59.88, 0.28 60.57 M-1.42 58.71 C1.01 46.13, 1.18 31.96, 0.23 -1.12 M0.33 60.3 C-1.2 48.23, -1.03 35.58, 0.58 -0.51" stroke="#000000" stroke-width="1" fill="none"></path></g><g stroke-linecap="round" transform="translate(2049.1315147772148 229.95517087982546) rotate(0 33.891204833984375 30.149139404296875)"><path d="M0.23 -1.12 C15.58 2.28, 33.11 1.25, 67.78 -1.37 M0.58 -0.51 C24.66 -0.87, 48.62 -1.07, 67.86 0.75 M66.97 0.3 C68.15 11.63, 69.59 24.76, 68.04 59.8 M67.91 0.85 C67.28 23.61, 67.61 45.42, 67.9 59.65 M69.2 59.25 C46.83 61.64, 27.63 62.96, 0.98 58.69 M67.41 60.63 C47.92 61.26, 30.37 60.17, 0.83 61.09 M1.53 59.54 C1.97 47.61, 1.66 34.1, -1.67 0.99 M-0.78 60.12 C-0.72 42.19, 0.28 25.86, -0.45 -0.16" stroke="#000000" stroke-width="1" fill="none"></path></g><g stroke-linecap="round" transform="translate(2122.636702765496 230.75140501068483) rotate(0 33.891204833984375 30.149139404296875)"><path d="M-1.12 -1.8 C27.33 -1.72, 51.93 -0.08, 66.41 1.2 M-0.51 0.25 C16.37 -0.59, 32.99 -0.32, 68.54 -0.79 M68.08 0.29 C66.37 20.62, 66.16 38.03, 67.28 61.8 M68.63 -0.14 C68.29 14.67, 67.48 29.09, 67.14 60.23 M66.73 59.23 C54.24 60.39, 41.34 61.76, -1.61 59.94 M68.11 59.55 C42.47 60.85, 15.64 60.87, 0.79 59.32 M-0.76 61.78 C-0.58 48.22, -1.91 32.13, 0.99 -0.16 M-0.18 60.15 C-0.55 37.41, 0.72 12.38, -0.16 0.43" stroke="#000000" stroke-width="1" fill="none"></path></g><g transform="translate(1530.9836072301982 336.4033249952923) rotate(0 303.50000000000006 34)"><text x="0" y="48" font-family="Virgil, Segoe UI Emoji" font-size="53.88033436462946px" fill="#000000" text-anchor="start" style="white-space: pre;" direction="ltr">128 64 32 16 8 4 2 1</text></g><g transform="translate(1373.1327513190054 141.0696428952487) rotate(0 127.5 25)"><text x="0" y="18" font-family="Virgil, Segoe UI Emoji" font-size="20px" fill="#000000" text-anchor="start" style="white-space: pre;" direction="ltr">si todos están encendidos</text><text x="0" y="43" font-family="Virgil, Segoe UI Emoji" font-size="20px" fill="#000000" text-anchor="start" style="white-space: pre;" direction="ltr">11111111 = 255</text></g><g transform="translate(1707.5179283514337 96.13528562591921) rotate(0 139 43.5)"><text x="0" y="61" font-family="Virgil, Segoe UI Emoji" font-size="68.33992513020834px" fill="#000000" text-anchor="start" style="white-space: pre;" direction="ltr">dec = 17</text></g><g transform="translate(2130.8384239569023 133.39276243255983) rotate(0 80 12.5)"><text x="0" y="18" font-family="Virgil, Segoe UI Emoji" font-size="20px" fill="#000000" text-anchor="start" style="white-space: pre;" direction="ltr">binary_model[8]</text></g><g transform="translate(2309.3350059881523 332.9049084286536) rotate(0 108 50)"><text x="0" y="18" font-family="Virgil, Segoe UI Emoji" font-size="20px" fill="#000000" text-anchor="start" style="white-space: pre;" direction="ltr">byte = 8bits</text><text x="0" y="43" font-family="Virgil, Segoe UI Emoji" font-size="20px" fill="#000000" text-anchor="start" style="white-space: pre;" direction="ltr"></text><text x="0" y="68" font-family="Virgil, Segoe UI Emoji" font-size="20px" fill="#000000" text-anchor="start" style="white-space: pre;" direction="ltr">o sea 8 posiciones en</text><text x="0" y="93" font-family="Virgil, Segoe UI Emoji" font-size="20px" fill="#000000" text-anchor="start" style="white-space: pre;" direction="ltr">tu array</text></g><g transform="translate(1193.1320640936212 284.83200193451296) rotate(0 115.5 12.5)"><text x="0" y="18" font-family="Virgil, Segoe UI Emoji" font-size="20px" fill="#000000" text-anchor="start" style="white-space: pre;" direction="ltr">SOLO USAS UN BUCLE</text></g><g transform="translate(1462.6572431583327 503.015374622334) rotate(0 157 62.5)"><text x="0" y="18" font-family="Virgil, Segoe UI Emoji" font-size="20px" fill="#000000" text-anchor="start" style="white-space: pre;" direction="ltr">Solo si (dec &gt;= binary_model[i])</text><text x="0" y="43" font-family="Virgil, Segoe UI Emoji" font-size="20px" fill="#000000" text-anchor="start" style="white-space: pre;" direction="ltr">    dec = dec - binary_model[i]</text><text x="0" y="68" font-family="Virgil, Segoe UI Emoji" font-size="20px" fill="#000000" text-anchor="start" style="white-space: pre;" direction="ltr">    binary_model[i] = 1</text><text x="0" y="93" font-family="Virgil, Segoe UI Emoji" font-size="20px" fill="#000000" text-anchor="start" style="white-space: pre;" direction="ltr"></text><text x="0" y="118" font-family="Virgil, Segoe UI Emoji" font-size="20px" fill="#000000" text-anchor="start" style="white-space: pre;" direction="ltr">FinSi</text></g><g transform="translate(1872.17485133141 576.5312994502658) rotate(0 157.00000000000006 112.5)"><text x="0" y="18" font-family="Virgil, Segoe UI Emoji" font-size="20px" fill="#000000" text-anchor="start" style="white-space: pre;" direction="ltr">Si (dec &gt;= binary_model[i])</text><text x="0" y="43" font-family="Virgil, Segoe UI Emoji" font-size="20px" fill="#000000" text-anchor="start" style="white-space: pre;" direction="ltr">    dec = dec - binary_model[i]</text><text x="0" y="68" font-family="Virgil, Segoe UI Emoji" font-size="20px" fill="#000000" text-anchor="start" style="white-space: pre;" direction="ltr">    binary_model[i] = 1</text><text x="0" y="93" font-family="Virgil, Segoe UI Emoji" font-size="20px" fill="#000000" text-anchor="start" style="white-space: pre;" direction="ltr"></text><text x="0" y="118" font-family="Virgil, Segoe UI Emoji" font-size="20px" fill="#000000" text-anchor="start" style="white-space: pre;" direction="ltr">SiNo</text><text x="0" y="143" font-family="Virgil, Segoe UI Emoji" font-size="20px" fill="#000000" text-anchor="start" style="white-space: pre;" direction="ltr">    Si (dec &lt; binary_model[i])</text><text x="0" y="168" font-family="Virgil, Segoe UI Emoji" font-size="20px" fill="#000000" text-anchor="start" style="white-space: pre;" direction="ltr">    binary_model[i] = 0</text><text x="0" y="193" font-family="Virgil, Segoe UI Emoji" font-size="20px" fill="#000000" text-anchor="start" style="white-space: pre;" direction="ltr"></text><text x="0" y="218" font-family="Virgil, Segoe UI Emoji" font-size="20px" fill="#000000" text-anchor="start" style="white-space: pre;" direction="ltr">FinSi</text></g><g transform="translate(1862.76750110534 476.4911358456458) rotate(0 338 43.5)"><text x="0" y="61" font-family="Virgil, Segoe UI Emoji" font-size="68.33992513020834px" fill="#000000" text-anchor="start" style="white-space: pre;" direction="ltr">dec = 17 -&gt; dec = 0</text></g><g transform="translate(1849.8903381228938 253.49459959076296) rotate(0 3.5 12.5)"><text x="0" y="18" font-family="Virgil, Segoe UI Emoji" font-size="20px" fill="#000000" text-anchor="start" style="white-space: pre;" direction="ltr">1</text></g><g transform="translate(2154.3436729803398 247.4790356259192) rotate(0 3.5 12.5)"><text x="0" y="18" font-family="Virgil, Segoe UI Emoji" font-size="20px" fill="#000000" text-anchor="start" style="white-space: pre;" direction="ltr">1</text></g><g transform="translate(1924.0788588906034 250.916784597449) rotate(0 8 12.5)"><text x="8" y="18" font-family="Virgil, Segoe UI Emoji" font-size="20px" fill="#000000" text-anchor="middle" style="white-space: pre;" direction="ltr">0</text></g><g transform="translate(1998.642745245965 248.55694700287233) rotate(0 8 12.5)"><text x="8" y="18" font-family="Virgil, Segoe UI Emoji" font-size="20px" fill="#000000" text-anchor="middle" style="white-space: pre;" direction="ltr">0</text></g><g transform="translate(2075.022719611199 247.60431028412233) rotate(0 8 12.5)"><text x="8" y="18" font-family="Virgil, Segoe UI Emoji" font-size="20px" fill="#000000" text-anchor="middle" style="white-space: pre;" direction="ltr">0</text></g><g transform="translate(1768.9218590154962 251.91903806732546) rotate(0 8 12.5)"><text x="8" y="18" font-family="Virgil, Segoe UI Emoji" font-size="20px" fill="#000000" text-anchor="middle" style="white-space: pre;" direction="ltr">0</text></g><g transform="translate(1666.4727303301502 252.1715405087317) rotate(0 8 12.5)"><text x="8" y="18" font-family="Virgil, Segoe UI Emoji" font-size="20px" fill="#000000" text-anchor="middle" style="white-space: pre;" direction="ltr">0</text></g><g transform="translate(1578.3882591619806 252.35406614349733) rotate(0 8 12.5)"><text x="8" y="18" font-family="Virgil, Segoe UI Emoji" font-size="20px" fill="#000000" text-anchor="middle" style="white-space: pre;" direction="ltr">0</text></g><g transform="translate(1772.4834122414902 477.17614121847225) rotate(0 12.149851163733501 75.42388542857526)" stroke="none"><path fill="#000000" d="M 0,-2.17 Q 0,-2.17 2.99,-2.05 5.99,-1.94 8.93,-1.85 11.88,-1.77 14.46,-1.71 17.04,-1.64 18.81,-1.68 20.58,-1.71 22.01,-1.88 23.44,-2.05 24.63,-1.52 25.83,-0.99 26.22,0.53 26.61,2.07 26.48,4.33 26.34,6.58 26.14,8.37 25.94,10.16 25.66,12.40 25.37,14.64 25.10,17.38 24.82,20.13 24.61,23.25 24.41,26.37 24.23,29.62 24.06,32.88 23.88,36.12 23.70,39.36 23.57,42.44 23.45,45.52 23.30,48.37 23.15,51.21 22.98,53.91 22.82,56.61 22.75,59.39 22.68,62.17 22.64,65.21 22.61,68.24 22.59,71.08 22.57,73.92 22.57,76.36 22.56,78.80 22.56,80.89 22.56,82.99 22.64,84.68 22.72,86.37 22.82,87.70 22.92,89.03 23.01,90.32 23.10,91.61 23.14,93.13 23.19,94.65 23.19,96.41 23.18,98.18 23.11,100.25 23.04,102.32 22.97,104.42 22.91,106.52 22.88,108.40 22.85,110.29 22.82,111.85 22.79,113.41 22.76,114.63 22.72,115.85 22.70,117.38 22.67,118.92 22.75,120.16 22.82,121.41 22.91,122.86 22.99,124.32 23.06,125.54 23.13,126.77 23.20,127.84 23.27,128.90 23.36,130.20 23.45,131.49 23.50,132.83 23.54,134.16 23.57,135.37 23.59,136.57 23.63,137.80 23.66,139.02 23.63,140.15 23.60,141.28 23.55,142.40 23.49,143.53 23.50,144.63 23.51,145.73 23.51,146.96 23.51,148.18 23.52,149.37 23.52,150.55 22.72,151.80 21.92,153.06 20.84,153.68 19.77,154.31 18.09,154.17 16.41,154.04 13.64,153.40 10.87,152.76 7.99,152.23 5.11,151.69 4.65,151.52 4.20,151.35 3.82,151.04 3.44,150.73 3.18,150.32 2.92,149.90 2.81,149.43 2.69,148.95 2.74,148.46 2.78,147.98 2.98,147.53 3.17,147.08 3.50,146.72 3.83,146.36 4.26,146.12 4.69,145.89 5.17,145.80 5.65,145.71 6.13,145.78 6.62,145.85 7.05,146.07 7.49,146.29 7.83,146.64 8.17,146.99 8.39,147.43 8.60,147.87 8.66,148.35 8.72,148.84 8.63,149.32 8.53,149.80 8.29,150.22 8.04,150.64 7.68,150.97 7.31,151.29 6.86,151.48 6.41,151.67 5.92,151.70 5.43,151.74 4.96,151.62 4.49,151.50 4.08,151.23 3.67,150.96 3.37,150.58 3.06,150.20 2.90,149.73 2.73,149.27 2.72,148.79 2.72,148.30 2.86,147.83 3.01,147.37 3.30,146.97 3.59,146.58 3.99,146.30 4.39,146.01 4.85,145.88 5.32,145.74 5.81,145.75 6.30,145.77 6.30,145.77 6.30,145.77 9.01,146.32 11.72,146.87 15.20,147.05 18.68,147.23 17.57,147.70 16.45,148.18 16.45,146.95 16.46,145.72 16.48,144.52 16.51,143.33 16.58,142.26 16.65,141.19 16.78,140.10 16.91,139.02 16.94,137.80 16.98,136.57 17.00,135.37 17.03,134.16 17.08,132.83 17.12,131.49 17.21,130.20 17.30,128.90 17.37,127.83 17.44,126.76 17.52,125.53 17.59,124.30 17.69,122.81 17.78,121.32 17.94,119.89 18.10,118.45 18.42,116.96 18.73,115.47 18.92,114.33 19.11,113.19 19.26,111.70 19.42,110.21 19.47,108.37 19.51,106.52 19.45,104.42 19.39,102.32 19.32,100.25 19.24,98.18 19.24,96.41 19.23,94.65 19.28,93.13 19.33,91.61 19.41,90.32 19.50,89.03 19.60,87.70 19.71,86.37 19.79,84.68 19.87,82.98 19.88,80.89 19.88,78.79 19.88,76.35 19.88,73.91 19.89,71.07 19.89,68.22 19.91,65.16 19.93,62.11 19.98,59.28 20.03,56.45 20.16,53.77 20.29,51.08 20.40,48.26 20.50,45.43 20.57,42.33 20.63,39.23 20.73,36.00 20.83,32.77 20.89,29.49 20.95,26.22 21.01,23.06 21.06,19.90 21.13,17.13 21.20,14.36 21.22,12.10 21.23,9.83 21.28,7.98 21.33,6.13 21.47,4.81 21.60,3.48 22.52,2.76 23.44,2.05 22.01,1.88 20.58,1.71 18.81,1.68 17.04,1.64 14.46,1.71 11.88,1.77 8.93,1.85 5.99,1.94 2.99,2.05 0,2.17 -0.25,2.13 -0.51,2.10 -0.76,2.01 -1.00,1.92 -1.22,1.77 -1.43,1.62 -1.61,1.42 -1.78,1.23 -1.90,1.00 -2.02,0.76 -2.09,0.51 -2.15,0.26 -2.15,-0.00 -2.15,-0.26 -2.09,-0.51 -2.02,-0.76 -1.90,-1.00 -1.78,-1.23 -1.61,-1.42 -1.43,-1.62 -1.22,-1.77 -1.00,-1.92 -0.76,-2.01 -0.51,-2.10 -0.25,-2.13 0.00,-2.17 0.00,-2.17 L 0,-2.17 Z"></path></g><g transform="translate(1445.364532250701 474.1698784932015) rotate(0 -2.90804364189691 80.90263141179094)" stroke="none"><path fill="#000000" d="M 0,2.16 Q 0,2.16 -1.69,2.15 -3.38,2.13 -5.47,2.03 -7.56,1.93 -9.71,1.85 -11.86,1.77 -13.83,1.77 -15.81,1.78 -17.59,1.87 -19.36,1.96 -20.76,2.13 -22.16,2.30 -23.50,2.57 -24.85,2.84 -23.95,4.13 -23.06,5.41 -22.74,6.55 -22.42,7.69 -21.95,9.31 -21.47,10.93 -20.99,12.92 -20.51,14.92 -20.02,16.97 -19.54,19.02 -19.11,21.14 -18.68,23.26 -18.33,25.29 -17.99,27.31 -17.73,29.47 -17.48,31.63 -17.21,34.44 -16.94,37.25 -16.60,40.88 -16.27,44.50 -16.01,48.56 -15.75,52.62 -15.65,56.68 -15.54,60.73 -15.50,64.57 -15.46,68.40 -15.45,71.81 -15.44,75.22 -15.43,78.39 -15.43,81.57 -15.43,84.46 -15.43,87.36 -15.43,89.96 -15.44,92.56 -15.44,95.13 -15.44,97.70 -15.44,100.32 -15.44,102.94 -15.44,105.73 -15.44,108.53 -15.44,111.70 -15.45,114.88 -15.45,118.44 -15.45,122.01 -15.45,125.71 -15.45,129.41 -15.45,133.14 -15.45,136.88 -15.45,140.29 -15.45,143.70 -15.45,146.31 -15.45,148.91 -15.39,150.78 -15.34,152.66 -15.27,153.90 -15.19,155.14 -15.11,156.27 -15.03,157.40 -13.89,157.50 -12.75,157.60 -11.48,157.97 -10.22,158.35 -8.94,158.43 -7.66,158.51 -5.39,158.82 -3.12,159.13 -0.94,159.33 1.23,159.54 3.34,159.67 5.45,159.81 7.43,159.87 9.41,159.93 11.18,159.93 12.95,159.92 14.40,159.87 15.84,159.81 17.72,159.77 19.59,159.73 19.92,159.78 20.25,159.84 20.55,159.99 20.84,160.15 21.07,160.40 21.30,160.64 21.44,160.94 21.58,161.25 21.62,161.58 21.65,161.91 21.58,162.24 21.51,162.57 21.34,162.85 21.16,163.14 20.91,163.36 20.65,163.58 20.34,163.70 20.03,163.82 19.70,163.84 19.36,163.86 19.04,163.77 18.72,163.68 18.44,163.49 18.16,163.30 17.96,163.04 17.76,162.77 17.65,162.45 17.54,162.13 17.54,161.80 17.54,161.46 17.65,161.15 17.76,160.83 17.96,160.56 18.16,160.30 18.44,160.11 18.72,159.92 19.04,159.83 19.36,159.74 19.70,159.76 20.03,159.78 20.34,159.90 20.66,160.03 20.91,160.24 21.17,160.46 21.34,160.75 21.51,161.03 21.58,161.36 21.66,161.69 21.62,162.02 21.58,162.36 21.44,162.66 21.30,162.96 21.07,163.21 20.84,163.45 20.54,163.61 20.25,163.76 19.92,163.82 19.59,163.87 19.59,163.87 19.59,163.87 17.71,163.83 15.84,163.78 14.39,163.72 12.94,163.67 11.16,163.65 9.39,163.64 7.40,163.68 5.40,163.72 3.26,163.82 1.13,163.91 -1.12,164.01 -3.37,164.11 -6.78,164.04 -10.19,163.98 -11.55,163.61 -12.91,163.25 -14.21,162.47 -15.50,161.69 -16.49,160.93 -17.48,160.16 -18.16,159.07 -18.85,157.98 -18.68,156.50 -18.51,155.03 -18.35,153.84 -18.19,152.66 -18.13,150.78 -18.08,148.91 -18.08,146.31 -18.08,143.70 -18.08,140.29 -18.08,136.88 -18.08,133.14 -18.08,129.41 -18.08,125.71 -18.08,122.01 -18.08,118.44 -18.08,114.88 -18.08,111.70 -18.08,108.53 -18.08,105.73 -18.09,102.94 -18.09,100.32 -18.09,97.70 -18.09,95.13 -18.10,92.56 -18.10,89.96 -18.11,87.36 -18.11,84.47 -18.12,81.57 -18.14,78.40 -18.15,75.24 -18.18,71.84 -18.21,68.44 -18.28,64.63 -18.34,60.81 -18.47,56.82 -18.60,52.82 -18.90,48.81 -19.20,44.80 -19.60,41.19 -19.99,37.59 -20.33,34.84 -20.68,32.09 -21.03,30.03 -21.39,27.96 -21.79,26.04 -22.19,24.11 -22.76,22.12 -23.34,20.12 -24.02,18.15 -24.71,16.18 -25.39,14.32 -26.06,12.46 -26.71,10.73 -27.36,9.00 -27.77,7.41 -28.17,5.81 -28.23,4.57 -28.29,3.33 -27.86,1.48 -27.44,-0.37 -26.31,-0.94 -25.18,-1.52 -23.80,-1.49 -22.42,-1.47 -20.97,-1.50 -19.51,-1.53 -17.69,-1.59 -15.87,-1.64 -13.86,-1.70 -11.86,-1.77 -9.71,-1.85 -7.56,-1.93 -5.47,-2.03 -3.38,-2.13 -1.69,-2.15 0,-2.16 0.25,-2.13 0.51,-2.09 0.76,-2.00 1.00,-1.91 1.21,-1.76 1.43,-1.61 1.60,-1.42 1.77,-1.22 1.90,-0.99 2.02,-0.76 2.08,-0.51 2.14,-0.26 2.14,0.00 2.14,0.26 2.08,0.51 2.02,0.76 1.90,0.99 1.77,1.22 1.60,1.42 1.43,1.61 1.21,1.76 1.00,1.91 0.76,2.00 0.51,2.09 0.25,2.13 -0.00,2.16 -0.00,2.16 L 0,2.16 Z"></path></g><g stroke-linecap="round" transform="translate(111.68891487876056 242.11186892273997) rotate(0 234 109)"><path d="M198.34 0.81 C218.32 -2.5, 241.83 -0.69, 263.37 0.59 C284.91 1.87, 307.42 4.42, 327.58 8.48 C347.73 12.54, 367.43 18.33, 384.29 24.93 C401.15 31.53, 416.51 39.62, 428.73 48.1 C440.94 56.57, 450.95 65.9, 457.56 75.79 C464.17 85.67, 468.13 97.04, 468.39 107.42 C468.66 117.79, 464.99 128.21, 459.14 138.01 C453.28 147.82, 444.96 157.51, 433.26 166.22 C421.56 174.94, 405.47 183.33, 388.92 190.33 C372.37 197.33, 353.65 203.72, 333.99 208.24 C314.32 212.76, 292.66 216, 270.94 217.48 C249.22 218.95, 225.45 218.41, 203.68 217.08 C181.91 215.75, 160.28 213.62, 140.33 209.5 C120.37 205.39, 100.78 199.25, 83.95 192.39 C67.11 185.54, 51.68 176.99, 39.32 168.39 C26.96 159.79, 16.32 150.32, 9.79 140.8 C3.25 131.28, 0.15 121.51, 0.09 111.28 C0.03 101.05, 3.68 89.57, 9.42 79.44 C15.16 69.31, 22.93 59.26, 34.52 50.48 C46.11 41.7, 62.29 33.6, 78.93 26.78 C95.57 19.96, 112.61 14.05, 134.35 9.55 C156.09 5.04, 194.94 0.87, 209.37 -0.25 C223.81 -1.38, 220.8 0.73, 220.97 2.81 M148.68 6.38 C166.88 1.26, 193.26 -0.28, 215.37 -1.07 C237.48 -1.85, 259.85 -0.86, 281.35 1.67 C302.84 4.19, 324.79 9.2, 344.33 14.09 C363.88 18.98, 382.98 23.96, 398.63 31.02 C414.28 38.08, 427.51 47.54, 438.22 56.43 C448.93 65.32, 458.22 74.46, 462.87 84.36 C467.51 94.26, 467.73 105.58, 466.09 115.83 C464.45 126.08, 460.34 136.1, 453.02 145.85 C445.71 155.61, 434.85 165.97, 422.21 174.39 C409.57 182.8, 394.72 190.48, 377.19 196.32 C359.66 202.17, 337.61 206.11, 317.04 209.46 C296.48 212.8, 275.34 215.57, 253.79 216.41 C232.24 217.25, 209.24 216.14, 187.73 214.5 C166.23 212.87, 144.44 211.04, 124.75 206.6 C105.05 202.15, 85.17 195.21, 69.56 187.84 C53.95 180.48, 41.55 171.53, 31.07 162.42 C20.59 153.3, 11.9 143.03, 6.7 133.16 C1.5 123.29, -1.28 113.48, -0.14 103.22 C0.99 92.96, 6.17 81.51, 13.48 71.62 C20.8 61.72, 30.69 52.2, 43.76 43.84 C56.83 35.48, 74.35 27.64, 91.89 21.43 C109.44 15.22, 139.17 8.52, 149.05 6.57 C158.92 4.61, 149.79 7.7, 151.13 9.7" stroke="#000000" stroke-width="1" fill="none"></path></g><g transform="translate(211.18891487876056 273.61186892274) rotate(0 134.5 77.5)"><text x="134.5" y="109" font-family="Virgil, Segoe UI Emoji" font-size="122.49086774815055px" fill="#000000" text-anchor="middle" style="white-space: pre;" direction="ltr">inicio</text></g><g stroke-linecap="round" transform="translate(10 549.9286217578094) rotate(0 350.10833080759625 233.02687708192747)"><path d="M-0.12 -0.2 C155.59 -2.49, 311.9 -3.38, 699.75 0.14 M-0.33 0.18 C178.4 0.87, 355.8 0.22, 700.45 0.05 M700.13 0.1 C698.75 116.9, 697.65 235.06, 699.5 466.39 M699.82 0.29 C701.28 145.07, 701.51 289.42, 700.09 465.76 M700.57 465.83 C444.1 464.84, 187.19 464.21, 0.47 466.64 M700.11 466.18 C549.43 468.15, 398.58 468.37, 0.22 466.24 M-0.23 466.07 C-1.64 319.04, -0.46 171.43, 0.31 -0.07 M0.28 466.49 C1.36 371.79, 1.58 276.74, 0.33 -0.09" stroke="#000000" stroke-width="1" fill="none"></path></g><g transform="translate(86.20021408850425 586.9825293286331) rotate(0 203.7624012219294 174.90334868835146)"><text x="0" y="30.725837172087864" font-family="Virgil, Segoe UI Emoji" font-size="34.98066973767029px" fill="#000000" text-anchor="start" style="white-space: pre;" direction="ltr">main</text><text x="0" y="74.45167434417573" font-family="Virgil, Segoe UI Emoji" font-size="34.98066973767029px" fill="#000000" text-anchor="start" style="white-space: pre;" direction="ltr">    menu:</text><text x="0" y="118.17751151626359" font-family="Virgil, Segoe UI Emoji" font-size="34.98066973767029px" fill="#000000" text-anchor="start" style="white-space: pre;" direction="ltr">        [1] decToBin();</text><text x="0" y="161.90334868835146" font-family="Virgil, Segoe UI Emoji" font-size="34.98066973767029px" fill="#000000" text-anchor="start" style="white-space: pre;" direction="ltr">        [2] binToDec();</text><text x="0" y="205.62918586043932" font-family="Virgil, Segoe UI Emoji" font-size="34.98066973767029px" fill="#000000" text-anchor="start" style="white-space: pre;" direction="ltr"></text><text x="0" y="249.35502303252719" font-family="Virgil, Segoe UI Emoji" font-size="34.98066973767029px" fill="#000000" text-anchor="start" style="white-space: pre;" direction="ltr">    show();</text><text x="0" y="293.0808602046151" font-family="Virgil, Segoe UI Emoji" font-size="34.98066973767029px" fill="#000000" text-anchor="start" style="white-space: pre;" direction="ltr"></text><text x="0" y="336.8066973767029" font-family="Virgil, Segoe UI Emoji" font-size="34.98066973767029px" fill="#000000" text-anchor="start" style="white-space: pre;" direction="ltr">    </text></g><g stroke-linecap="round"><g transform="translate(364.84037582520375 1016.9823759216644) rotate(0 1.0087499130201536 43.62615251929583)"><path d="M-0.84 -0.51 C-0.49 14.22, 2.16 73.01, 2.85 87.77 M0.93 -1.83 C1.07 13.13, 1.74 73.89, 2.09 89.08" stroke="#000000" stroke-width="1" fill="none"></path></g><g transform="translate(364.84037582520375 1016.9823759216644) rotate(0 1.0087499130201536 43.62615251929583)"><path d="M-9.48 61.64 C-5.59 72.76, -1.17 83.26, 0.81 90.39 M-8.23 60.22 C-4.28 70.2, -1.27 80.1, 1.35 88.63" stroke="#000000" stroke-width="1" fill="none"></path></g><g transform="translate(364.84037582520375 1016.9823759216644) rotate(0 1.0087499130201536 43.62615251929583)"><path d="M11.04 61.31 C7.43 72.41, 4.34 83.03, 0.81 90.39 M12.29 59.89 C9.18 69.87, 5.12 79.89, 1.35 88.63" stroke="#000000" stroke-width="1" fill="none"></path></g></g><g stroke-linecap="round" transform="translate(865.825689304493 10) rotate(0 1063.867127297088 429.7252887208482)"><path d="M0.59 0.62 C783.8 -4.22, 1567.21 -4.64, 2127.56 0.12 M-0.36 0.06 C748.86 0.14, 1497.51 0.7, 2127.78 0.35 M2128.33 -0.67 C2126.82 272.9, 2126.68 545.28, 2127.64 858.98 M2127.57 0.29 C2127 253.36, 2126.3 506.24, 2127.94 859.69 M2127.35 860.2 C1411.89 851.96, 695.46 852.32, -0.64 859.92 M2128.11 859.09 C1626.64 856.02, 1126.1 856.14, 0.34 859.69 M0.09 859.63 C-2.78 626.48, -3.36 391.51, -0.27 0.5 M0.36 859.58 C3.42 572.44, 3.41 285.21, 0.17 -0.34" stroke="#000000" stroke-width="1" fill="none"></path></g><g stroke-linecap="round" transform="translate(870.7587817044937 909.5185640276962) rotate(0 898.4324103103005 370.2687123041195)"><path d="M0.62 -0.55 C399.63 2.27, 798.19 2.37, 1796.8 0.11 M-0.01 -0.2 C628.58 1.75, 1257.5 1.55, 1796.62 -0.35 M1796.41 -0.36 C1794.72 256.67, 1794.37 514.27, 1797.65 740.86 M1796.99 -0.3 C1795.85 201.51, 1795.88 403.16, 1796.93 740.47 M1797.47 740.75 C1107.18 738.34, 418.22 738.85, -0.5 740.65 M1797.18 740.3 C1214.3 735.92, 631.71 736.1, -0.26 740.45 M0.2 739.79 C-2.37 508.34, -3.58 275.93, 0.45 0.59 M-0.23 740.63 C1.65 509.61, 1.98 279.05, -0.36 0.32" stroke="#000000" stroke-width="1" fill="none"></path></g><g transform="translate(930.3742610348356 55.2824399936635) rotate(0 116.28354878195921 102.90579538226478)"><text x="0" y="36.45289769113239" font-family="Virgil, Segoe UI Emoji" font-size="41.16231815290591px" fill="#000000" text-anchor="start" style="white-space: pre;" direction="ltr">decToBin(n)</text><text x="0" y="87.90579538226478" font-family="Virgil, Segoe UI Emoji" font-size="41.16231815290591px" fill="#000000" text-anchor="start" style="white-space: pre;" direction="ltr">    </text><text x="0" y="139.35869307339718" font-family="Virgil, Segoe UI Emoji" font-size="41.16231815290591px" fill="#000000" text-anchor="start" style="white-space: pre;" direction="ltr"></text><text x="0" y="190.81159076452957" font-family="Virgil, Segoe UI Emoji" font-size="41.16231815290591px" fill="#000000" text-anchor="start" style="white-space: pre;" direction="ltr">        </text></g><g transform="translate(921.6176078113039 944.6422636320682) rotate(0 839.5360737040869 327.94377879065894)"><text x="0" y="30.725837172087857" font-family="Virgil, Segoe UI Emoji" font-size="34.98066973767029px" fill="#000000" text-anchor="start" style="white-space: pre;" direction="ltr">binToDec(n)</text><text x="0" y="74.45167434417571" font-family="Virgil, Segoe UI Emoji" font-size="34.98066973767029px" fill="#000000" text-anchor="start" style="white-space: pre;" direction="ltr">    ingresar_binario(bin, n);</text><text x="0" y="118.17751151626356" font-family="Virgil, Segoe UI Emoji" font-size="34.98066973767029px" fill="#000000" text-anchor="start" style="white-space: pre;" direction="ltr">    </text><text x="0" y="161.90334868835143" font-family="Virgil, Segoe UI Emoji" font-size="34.98066973767029px" fill="#000000" text-anchor="start" style="white-space: pre;" direction="ltr">    dec = 0;</text><text x="0" y="205.6291858604393" font-family="Virgil, Segoe UI Emoji" font-size="34.98066973767029px" fill="#000000" text-anchor="start" style="white-space: pre;" direction="ltr">    c = 128; // 128 valor de la primera posición de izq a der si se quiere convertir a dec un bin</text><text x="0" y="249.35502303252713" font-family="Virgil, Segoe UI Emoji" font-size="34.98066973767029px" fill="#000000" text-anchor="start" style="white-space: pre;" direction="ltr">    para(dimensiones para bin[8])</text><text x="0" y="293.080860204615" font-family="Virgil, Segoe UI Emoji" font-size="34.98066973767029px" fill="#000000" text-anchor="start" style="white-space: pre;" direction="ltr">        Si bin[i] == 1 Entonces</text><text x="0" y="336.80669737670286" font-family="Virgil, Segoe UI Emoji" font-size="34.98066973767029px" fill="#000000" text-anchor="start" style="white-space: pre;" direction="ltr">            dec = dec + c;</text><text x="0" y="380.5325345487907" font-family="Virgil, Segoe UI Emoji" font-size="34.98066973767029px" fill="#000000" text-anchor="start" style="white-space: pre;" direction="ltr">        FinSi</text><text x="0" y="424.2583717208786" font-family="Virgil, Segoe UI Emoji" font-size="34.98066973767029px" fill="#000000" text-anchor="start" style="white-space: pre;" direction="ltr">                </text><text x="0" y="467.9842088929664" font-family="Virgil, Segoe UI Emoji" font-size="34.98066973767029px" fill="#000000" text-anchor="start" style="white-space: pre;" direction="ltr">        contador = contador / 2;</text><text x="0" y="511.71004606505426" font-family="Virgil, Segoe UI Emoji" font-size="34.98066973767029px" fill="#000000" text-anchor="start" style="white-space: pre;" direction="ltr">        Escribir dec, "   ", c;</text><text x="0" y="555.4358832371421" font-family="Virgil, Segoe UI Emoji" font-size="34.98066973767029px" fill="#000000" text-anchor="start" style="white-space: pre;" direction="ltr">    FinPara</text><text x="0" y="599.16172040923" font-family="Virgil, Segoe UI Emoji" font-size="34.98066973767029px" fill="#000000" text-anchor="start" style="white-space: pre;" direction="ltr">    Escribir "Decimal es ", dec;</text><text x="0" y="642.8875575813179" font-family="Virgil, Segoe UI Emoji" font-size="34.98066973767029px" fill="#000000" text-anchor="start" style="white-space: pre;" direction="ltr"></text></g><g stroke-linecap="round" transform="translate(130.20516674829935 1132.0092919201993) rotate(0 234 109)"><path d="M303.47 4.05 C324.59 5.26, 345.31 12.89, 363.48 18.52 C381.65 24.14, 398.51 29.92, 412.47 37.81 C426.43 45.7, 438.19 56.3, 447.24 65.86 C456.28 75.42, 463.81 85.22, 466.73 95.18 C469.65 105.15, 468.13 115.64, 464.75 125.62 C461.37 135.61, 455.78 145.63, 446.47 155.09 C437.15 164.54, 423.77 174.56, 408.86 182.33 C393.96 190.1, 375.79 196.45, 357.06 201.71 C338.33 206.98, 317.5 211.09, 296.49 213.92 C275.48 216.75, 252.94 218.77, 231.02 218.67 C209.09 218.58, 185.94 216.53, 164.96 213.36 C143.97 210.18, 123.48 205.2, 105.11 199.62 C86.74 194.05, 68.98 187.52, 54.73 179.9 C40.48 172.29, 28.36 163.39, 19.59 153.91 C10.82 144.43, 4.79 133.23, 2.11 123.04 C-0.57 112.85, 0.17 102.77, 3.51 92.78 C6.85 82.78, 12.75 72.41, 22.18 63.05 C31.61 53.69, 45.56 44.23, 60.09 36.61 C74.63 29, 90.9 22.68, 109.39 17.38 C127.88 12.08, 149.67 7.65, 171.05 4.84 C192.43 2.02, 213 0.12, 237.66 0.48 C262.33 0.84, 302.98 5.09, 319.03 7 C335.09 8.92, 335.29 10.32, 333.98 11.97 M140.84 8.64 C158.6 3.2, 184.07 0.9, 205.99 -0.12 C227.92 -1.13, 251.05 0.52, 272.38 2.57 C293.71 4.62, 314.29 8, 333.99 12.2 C353.68 16.39, 373.91 21.05, 390.55 27.75 C407.18 34.45, 422.1 43.81, 433.8 52.41 C445.5 61.02, 454.92 69.67, 460.72 79.37 C466.52 89.06, 469.38 100.03, 468.62 110.57 C467.86 121.11, 463.05 132.61, 456.17 142.62 C449.28 152.63, 439.49 162.39, 427.29 170.61 C415.09 178.84, 399.54 185.36, 382.96 191.99 C366.39 198.61, 348.03 205.97, 327.83 210.38 C307.64 214.78, 283.86 217.39, 261.79 218.41 C239.72 219.42, 216.98 218.3, 195.43 216.47 C173.88 214.64, 152.35 211.63, 132.49 207.43 C112.62 203.23, 92.33 198.22, 76.23 191.27 C60.13 184.31, 47.07 174.46, 35.9 165.69 C24.72 156.92, 15.03 148.28, 9.17 138.65 C3.31 129.01, 0.44 118.26, 0.74 107.88 C1.04 97.49, 4.48 86.04, 10.98 76.33 C17.47 66.63, 27.52 58.27, 39.72 49.65 C51.93 41.03, 67.48 31.61, 84.2 24.6 C100.92 17.6, 130.23 9.98, 140.05 7.6 C149.86 5.21, 141.6 8.24, 143.07 10.3" stroke="#000000" stroke-width="1" fill="none"></path></g><g transform="translate(291.20516674829935 1163.5092919201993) rotate(0 73 77.5)"><text x="73" y="109" font-family="Virgil, Segoe UI Emoji" font-size="122.49086774815055px" fill="#000000" text-anchor="middle" style="white-space: pre;" direction="ltr">fin</text></g><g stroke-linecap="round"><g transform="translate(353.53413150129745 474.8469612596026) rotate(0 0.5782933880344672 32.897289764216225)"><path d="M0.53 0.12 C0.86 11.28, 1.62 55.63, 1.81 66.66 M-0.65 -0.87 C-0.5 9.99, 0.48 54.17, 0.69 65.03" stroke="#000000" stroke-width="1" fill="none"></path></g><g transform="translate(353.53413150129745 474.8469612596026) rotate(0 0.5782933880344672 32.897289764216225)"><path d="M-9.96 36.52 C-5.56 44.22, -3.04 54.43, -0.15 63.13 M-10.44 36.13 C-6.26 46.99, -2.11 57.5, 0.6 65.58" stroke="#000000" stroke-width="1" fill="none"></path></g><g transform="translate(353.53413150129745 474.8469612596026) rotate(0 0.5782933880344672 32.897289764216225)"><path d="M10.56 36.09 C9.08 44, 5.73 54.34, -0.15 63.13 M10.07 35.7 C7.02 46.79, 3.92 57.45, 0.6 65.58" stroke="#000000" stroke-width="1" fill="none"></path></g></g></svg>